# xmcd
# 
# Track frame offsets:
#     183
#     12353
#     25955
#     39713
#     53830
#     67680
#     84850
#     99988
#     112938
#     125945
#     140800
#     155703
# 
# Disc length: 2257
# 
# Revision: 3
# Processed by: cddbd v1.5.2PL0 Copyright (c) Steve Scherf et al.
# Submitted via: fre:ac v1.0.17
# 
DISCID=9c08cf0c
DTITLE=Hansruedi Kappeler - E z'fridni Pause
DYEAR=0
DGENRE=Volkstümlich
TTITLE0=Adelboden hell
TTITLE1=Flügermarsch
TTITLE2=Es Stückli Heimat
TTITLE3=Toufi ir Schönetanne
TTITLE4=Eine für d'Landjägerbuaba
TTITLE5=Uf dr Prob
TTITLE6=Rosmarie
TTITLE7=Risottoplousch bim Willy z'Ascona
TTITLE8=Mi einzigi Freud
TTITLE9=Marc u Hermann uf dr Autobahn
TTITLE10=E ächte Bärner
TTITLE11=Schwarzenburgermarsch
EXTD=
EXTT0=
EXTT1=
EXTT2=
EXTT3=
EXTT4=
EXTT5=
EXTT6=
EXTT7=
EXTT8=
EXTT9=
EXTT10=
EXTT11=
PLAYORDER=
